<?xml version="1.0" standalone="no"?><!DOCTYPE svg PUBLIC "-//W3C//DTD SVG 1.1//EN" "http://www.w3.org/Graphics/SVG/1.1/DTD/svg11.dtd"><svg t="1730528467809" class="icon" viewBox="0 0 1024 1024" version="1.1" xmlns="http://www.w3.org/2000/svg" p-id="4823" width="30" height="30" xmlns:xlink="http://www.w3.org/1999/xlink"><path d="M480 128c192 0 352 160 352 352S672 832 480 832 128 672 128 480 288 128 480 128m0-64C249.6 64 64 249.6 64 480S249.6 896 480 896 896 710.4 896 480 710.4 64 480 64z" fill="#333333" p-id="4824" data-spm-anchor-id="a313x.search_index.0.i5.bac03a81uDi4dI" class="selected"></path><path d="M928 928m-32 0a32 32 0 1 0 64 0 32 32 0 1 0-64 0Z" fill="#333333" p-id="4825"></path><path d="M770.56 725.248l180.992 180.992-45.248 45.312-181.056-181.056z" fill="#333333" p-id="4826"></path></svg>